<?xml version="1.0" encoding="UTF-8" standalone="no"?>
<!-- Created with Inkscape (http://www.inkscape.org/) -->

<svg
   width="73.991745mm"
   height="17.930414mm"
   viewBox="0 0 73.991742 17.930391"
   version="1.1"
   id="svg5"
   inkscape:version="1.2.1 (9c6d41e410, 2022-07-14)"
   sodipodi:docname="logo.svg"
   xmlns:inkscape="http://www.inkscape.org/namespaces/inkscape"
   xmlns:sodipodi="http://sodipodi.sourceforge.net/DTD/sodipodi-0.dtd"
   xmlns="http://www.w3.org/2000/svg"
   xmlns:svg="http://www.w3.org/2000/svg">
  <sodipodi:namedview
     id="namedview7"
     pagecolor="#505050"
     bordercolor="#eeeeee"
     borderopacity="1"
     inkscape:showpageshadow="0"
     inkscape:pageopacity="0"
     inkscape:pagecheckerboard="0"
     inkscape:deskcolor="#505050"
     inkscape:document-units="mm"
     showgrid="false"
     inkscape:zoom="1.5518659"
     inkscape:cx="337.01366"
     inkscape:cy="110.83432"
     inkscape:window-width="1916"
     inkscape:window-height="1055"
     inkscape:window-x="0"
     inkscape:window-y="21"
     inkscape:window-maximized="1"
     inkscape:current-layer="layer1" />
  <defs
     id="defs2">
    <inkscape:path-effect
       effect="bspline"
       id="path-effect555"
       is_visible="true"
       lpeversion="1"
       weight="33.333333"
       steps="2"
       helper_size="0"
       apply_no_weight="true"
       apply_with_weight="true"
       only_selected="false" />
    <inkscape:path-effect
       effect="bspline"
       id="path-effect551"
       is_visible="true"
       lpeversion="1"
       weight="33.333333"
       steps="2"
       helper_size="0"
       apply_no_weight="true"
       apply_with_weight="true"
       only_selected="false" />
    <inkscape:path-effect
       effect="bspline"
       id="path-effect327"
       is_visible="true"
       lpeversion="1"
       weight="33.333333"
       steps="2"
       helper_size="0"
       apply_no_weight="true"
       apply_with_weight="true"
       only_selected="false" />
    <inkscape:path-effect
       effect="bspline"
       id="path-effect297"
       is_visible="true"
       lpeversion="1"
       weight="33.333333"
       steps="2"
       helper_size="0"
       apply_no_weight="true"
       apply_with_weight="true"
       only_selected="false" />
    <inkscape:path-effect
       effect="bspline"
       id="path-effect293"
       is_visible="true"
       lpeversion="1"
       weight="33.333333"
       steps="2"
       helper_size="0"
       apply_no_weight="true"
       apply_with_weight="true"
       only_selected="false" />
    <inkscape:path-effect
       effect="bspline"
       id="path-effect289"
       is_visible="true"
       lpeversion="1"
       weight="33.333333"
       steps="2"
       helper_size="0"
       apply_no_weight="true"
       apply_with_weight="true"
       only_selected="false" />
    <inkscape:path-effect
       effect="bspline"
       id="path-effect285"
       is_visible="true"
       lpeversion="1"
       weight="33.333333"
       steps="2"
       helper_size="0"
       apply_no_weight="true"
       apply_with_weight="true"
       only_selected="false" />
    <inkscape:path-effect
       effect="bspline"
       id="path-effect173"
       is_visible="true"
       lpeversion="1"
       weight="33.333333"
       steps="2"
       helper_size="0"
       apply_no_weight="true"
       apply_with_weight="true"
       only_selected="false" />
    <inkscape:path-effect
       effect="bspline"
       id="path-effect169"
       is_visible="true"
       lpeversion="1"
       weight="33.333333"
       steps="2"
       helper_size="0"
       apply_no_weight="true"
       apply_with_weight="true"
       only_selected="false" />
    <inkscape:path-effect
       effect="bspline"
       id="path-effect173-3"
       is_visible="true"
       lpeversion="1"
       weight="33.333333"
       steps="2"
       helper_size="0"
       apply_no_weight="true"
       apply_with_weight="true"
       only_selected="false" />
  </defs>
  <g
     inkscape:label="Layer 1"
     inkscape:groupmode="layer"
     id="layer1"
     transform="translate(-6.7585204,-3.5093931)">
    <path
       style="fill:#000000;stroke-width:0.106674"
       d="M 7.536012,17.202455 C 7.5138904,16.239523 7.4289222,14.805353 7.2780704,13.69152 7.1272187,12.577687 6.9104643,11.784209 6.8174151,10.899231 6.7243659,10.014254 6.7550626,9.0378527 6.8167538,7.7858282 6.878445,6.5338038 6.9711291,5.0062395 7.4386037,4.2405391 7.9060783,3.4748388 8.7481956,3.4711336 9.7837713,3.5335619 c 1.0355757,0.062428 2.2645347,0.1909727 3.3964947,0.4061696 1.13196,0.2151969 2.166845,0.5170067 2.781517,1.1457128 0.614672,0.6287061 0.809203,1.5841778 0.862397,2.4630903 0.05319,0.8789124 -0.03491,1.681245 -0.464606,2.328998 -0.429691,0.6477524 -1.20097,1.1410024 -2.004548,1.4894214 -0.803578,0.348419 -1.639456,0.551992 -1.837774,1.108066 -0.198319,0.556073 0.240935,1.46446 0.815822,2.119753 0.574888,0.655294 1.285306,1.057516 1.956599,1.429435 0.671293,0.37192 1.303421,0.713518 1.564255,1.073344 0.260835,0.359826 0.150516,0.737856 -0.186923,1.000782 -0.33744,0.262926 -0.902067,0.410824 -1.432297,0.390253 -0.530229,-0.02057 -1.026084,-0.209677 -1.526857,-0.535556 -0.500774,-0.325879 -1.00642,-0.788563 -1.448715,-1.338165 -0.442295,-0.549602 -0.82118,-1.186113 -1.162809,-1.817176 -0.34163,-0.631062 -0.645972,-1.256642 -0.763956,-1.962646 -0.117985,-0.706004 -0.04954,-1.492359 0.443152,-1.977762 0.492689,-0.485403 1.409492,-0.669717 2.127424,-0.9463791 C 13.620878,9.6342414 14.139962,9.2652486 14.410954,8.7497723 14.681946,8.234296 14.704859,7.5722532 14.493094,6.9895132 14.281329,6.4067732 13.8348,5.9033603 13.156932,5.5673215 12.479064,5.2312828 11.569878,5.0627241 10.777959,5.0004384 9.9860404,4.9381526 9.3114563,4.9821704 8.8773476,5.5040639 8.4432388,6.0259574 8.2497412,7.0255966 8.1529985,7.9236605 c -0.096743,0.8980638 -0.096743,1.6944773 -0.028265,2.4009735 0.068478,0.706496 0.2054007,1.323015 0.3637701,1.999982 0.1583695,0.676967 0.3381722,1.414339 0.4718541,2.065433 0.133682,0.651095 0.2212479,1.215881 0.2763307,1.836677 0.055083,0.620796 0.077695,1.297574 0.011561,1.828067 -0.066134,0.530493 -0.220983,0.914727 -0.530962,1.072662 C 8.4073082,19.285391 7.9420789,19.21706 7.7297514,18.937074 7.5174239,18.657087 7.5581335,18.165388 7.536012,17.202455 Z"
       id="path167"
       inkscape:path-effect="#path-effect169"
       inkscape:original-d="M 7.598852,17.67358 C 7.5139904,16.239517 7.4290221,14.805347 7.3439472,13.37107 7.1272908,12.577667 6.9105365,11.784189 6.6936712,10.990589 c 0.030804,-0.976332 0.061501,-1.9527329 0.092092,-2.9292597 0.092795,-1.5275186 0.1854786,-3.055083 0.2780579,-4.5827846 0.8422577,-0.0036 1.684375,-0.0073 2.5264024,-0.011116 1.2291135,0.1286561 2.4580725,0.2572003 3.6869485,0.3856405 1.035034,0.3019288 2.069919,0.6037388 3.10472,0.9054484 0.194644,0.9556164 0.389176,1.9110878 0.583603,2.866472 -0.088,0.8024707 -0.176112,1.6048029 -0.264328,2.4070434 -0.771205,0.493376 -1.542483,0.986626 -2.313884,1.479778 -0.835804,0.203688 -1.671682,0.407261 -2.507683,0.610731 0.439378,0.908529 0.878632,1.816916 1.317788,2.725215 0.710554,0.402345 1.420972,0.804567 2.131298,1.20669 0.632259,0.341719 1.264387,0.683318 1.896421,1.024816 -0.110218,0.378152 -0.220537,0.756182 -0.330964,1.134113 -0.564545,0.14801 -1.129172,0.295908 -1.69392,0.443702 -0.495766,-0.189005 -0.991621,-0.37811 -1.487591,-0.567325 -0.50556,-0.462595 -1.011206,-0.925279 -1.516967,-1.388079 -0.378793,-0.636429 -0.757677,-1.27294 -1.136675,-1.90957 -0.304248,-0.625498 -0.608591,-1.251077 -0.913046,-1.876775 0.06856,-0.786279 0.137006,-1.572634 0.205348,-2.359112 0.916945,-0.184215 1.833748,-0.36853 2.750462,-0.552954 0.51921,-0.368901 1.038294,-0.7378935 1.557282,-1.1070003 0.02302,-0.6619629 0.04593,-1.3240058 0.06874,-1.9861685 C 14.281335,6.4067677 13.834806,5.9033549 13.388163,5.3998254 12.479048,5.2313667 11.569862,5.0628082 10.660552,4.8941396 9.9860478,4.938266 9.3114637,4.9822837 8.6367602,5.0261955 8.4433617,6.0259812 8.249864,7.0256204 8.0562558,8.0251724 c 1.067e-4,0.7965519 1.067e-4,1.5929654 0,2.3892886 0.1370349,0.616651 0.2739578,1.23317 0.4107769,1.849596 0.1799164,0.737508 0.3597197,1.474879 0.5394192,2.212158 0.087676,0.564915 0.1752421,1.129701 0.2627031,1.694392 0.022723,0.676911 0.04533,1.35369 0.067837,2.030376 C 9.1822442,18.585338 9.0273951,18.969572 8.8724367,19.353706 8.4072954,19.285478 7.942066,19.217148 7.4767206,19.148711 7.5175387,18.657097 7.5582482,18.165397 7.598852,17.67358 Z" />
    <path
       style="fill:#000000;stroke-width:0.106674"
       d="m 18.188855,4.318171 c -0.624004,0.295662 -0.714482,0.989914 -0.75084,1.9914398 -0.03636,1.0015258 -0.01861,2.310257 -0.0249,3.6501559 -0.0063,1.3398993 -0.03659,2.7108883 -0.08632,3.8935683 -0.04973,1.18268 -0.118868,2.176988 -0.111821,2.921706 0.007,0.744717 0.09025,1.239783 0.56315,1.510018 0.472899,0.270236 1.335365,0.315745 2.553737,0.319606 1.218371,0.0039 2.792575,-0.03392 3.778483,-0.216007 0.985907,-0.18209 1.383563,-0.50847 1.50732,-0.771738 0.123758,-0.263268 -0.02647,-0.463536 -0.451127,-0.626164 -0.424663,-0.162628 -1.123766,-0.287508 -2.034366,-0.308232 -0.9106,-0.02072 -2.032613,0.06274 -2.786864,0.115928 -0.754251,0.05319 -1.140702,0.0761 -1.358675,-0.438193 -0.217972,-0.514297 -0.26736,-1.565878 -0.27095,-2.341091 -0.0036,-0.775214 0.03863,-1.274001 0.568384,-1.540086 0.529751,-0.266084 1.546876,-0.29935 2.399345,-0.272052 0.852469,0.0273 1.540218,0.115139 2.174971,0.138147 0.634754,0.02301 1.216493,-0.01879 1.55686,-0.216082 0.340367,-0.197287 0.439463,-0.550121 0.264714,-0.803096 -0.174749,-0.252974 -0.623476,-0.40605 -1.361651,-0.494067 -0.738175,-0.08802 -1.765727,-0.11093 -2.691003,-0.100005 -0.925276,0.01092 -1.748214,0.0557 -2.253563,-0.1864 -0.505349,-0.242096 -0.693029,-0.7711728 -0.786894,-1.4363232 -0.09386,-0.6651503 -0.09386,-1.4663101 -0.03646,-2.0550022 0.0574,-0.588692 0.172216,-0.9648451 0.590848,-1.1992992 0.418633,-0.2344541 1.140936,-0.3271178 1.942575,-0.3404764 0.801638,-0.013359 1.68254,0.052567 2.431322,0.09092 0.748782,0.038353 1.36541,0.049137 1.80131,-0.076398 0.435899,-0.125535 0.691158,-0.3873764 0.677813,-0.6214411 C 25.980907,4.6734419 25.698842,4.4670799 25.338133,4.3638533 24.977424,4.2606267 24.538107,4.2606267 23.823247,4.2552753 23.108387,4.249924 22.118033,4.2392205 21.044136,4.182368 19.970239,4.1255154 18.812859,4.0225091 18.188855,4.318171 Z"
       id="path171"
       inkscape:path-effect="#path-effect173"
       inkscape:original-d="m 17.65534,3.9194904 c -0.09037,0.6943581 -0.18085,1.3886098 -0.271432,2.0827544 0.01785,1.3088904 0.0356,2.6176216 0.05324,3.9262723 -0.0302,1.3711509 -0.06051,2.7421399 -0.09093,4.1130499 -0.06904,0.994456 -0.138175,1.988764 -0.207421,2.982986 0.08331,0.495191 0.166517,0.990256 0.249615,1.485224 0.862609,0.04562 1.725075,0.09113 2.587452,0.136532 1.574374,-0.03767 3.148578,-0.07545 4.722705,-0.113338 0.397781,-0.326286 0.795437,-0.652666 1.192996,-0.979162 -0.150123,-0.20017 -0.300346,-0.400438 -0.450679,-0.600817 -0.699024,-0.124779 -1.398127,-0.249659 -2.097352,-0.374649 -1.121952,0.08357 -2.243965,0.167034 -3.366109,0.250391 -0.386359,0.02302 -0.772811,0.04593 -1.159377,0.06874 -0.04929,-1.051516 -0.09867,-2.103098 -0.148168,-3.154806 0.04233,-0.498704 0.08455,-0.997492 0.12667,-1.496399 1.017274,-0.03316 2.034399,-0.06642 3.051438,-0.0998 0.687883,0.08795 1.375632,0.175791 2.063289,0.263527 0.58187,-0.0417 1.163609,-0.0835 1.745255,-0.12541 0.09921,-0.352742 0.198304,-0.705576 0.297294,-1.058523 -0.448638,-0.152975 -0.897364,-0.306052 -1.346206,-0.459237 -1.027489,-0.02281 -2.055041,-0.04572 -3.08272,-0.06874 -0.822865,0.04488 -1.645803,0.08965 -2.468866,0.134313 -0.18758,-0.52899 -0.37526,-1.0580665 -0.56305,-1.5872601 1.07e-4,-0.8010854 1.07e-4,-1.6022452 0,-2.4035279 0.114928,-0.3760624 0.229744,-0.7522154 0.344455,-1.1284833 0.722441,-0.092561 1.444744,-0.1852248 2.166956,-0.2779971 0.881043,0.066035 1.761945,0.1319606 2.642757,0.1977808 0.616757,0.010891 1.233385,0.021675 1.849917,0.032354 0.25538,-0.2617447 0.510637,-0.5235874 0.765792,-0.7855419 -0.281968,-0.2062631 -0.564033,-0.4126245 -0.846208,-0.6190968 -0.439229,1.067e-4 -0.878546,1.067e-4 -1.31798,0 -0.990287,-0.010597 -1.980641,-0.0213 -2.971123,-0.032111 -1.15732,-0.1029036 -2.3147,-0.2059102 -3.47221,-0.3090253 z" />
    <path
       style="fill:#000000;stroke-width:0.106674"
       d="m 58.469908,4.2047573 c -0.624006,0.2956623 -0.714482,0.9899137 -0.75084,1.9914397 -0.03636,1.001526 -0.01861,2.3102569 -0.02489,3.6501562 -0.0063,1.3398998 -0.03659,2.7108888 -0.08631,3.8935688 -0.04973,1.182679 -0.118867,2.176988 -0.11182,2.921706 0.007,0.744718 0.09025,1.239782 0.563151,1.510017 0.472899,0.270236 1.335362,0.315746 2.553734,0.319607 1.218372,0.0039 2.792571,-0.03392 3.778481,-0.216007 0.985909,-0.182089 1.383568,-0.508472 1.507324,-0.771739 0.123756,-0.263268 -0.02647,-0.463536 -0.451129,-0.626164 -0.424662,-0.162627 -1.123768,-0.287508 -2.034366,-0.308231 -0.910598,-0.02072 -2.03261,0.06274 -2.786863,0.115927 -0.754253,0.05319 -1.140708,0.0761 -1.358678,-0.438194 -0.21797,-0.514296 -0.267357,-1.565877 -0.270947,-2.341091 -0.0036,-0.775215 0.03863,-1.274002 0.568382,-1.540085 0.529749,-0.266084 1.546876,-0.29935 2.399347,-0.272051 0.852472,0.0273 1.540217,0.115138 2.17497,0.138145 0.634753,0.02301 1.216496,-0.01879 1.556863,-0.21608 0.340367,-0.197286 0.439463,-0.550122 0.264713,-0.803097 -0.174749,-0.252975 -0.623474,-0.40605 -1.361649,-0.494068 -0.738176,-0.08802 -1.765728,-0.11093 -2.691004,-0.100005 -0.925277,0.01092 -1.74822,0.0557 -2.253569,-0.1864 -0.505348,-0.242096 -0.693027,-0.771173 -0.786891,-1.4363239 -0.09386,-0.6651509 -0.09386,-1.4663102 -0.03646,-2.0550026 0.0574,-0.5886924 0.172217,-0.9648435 0.590849,-1.199298 0.418631,-0.2344545 1.140933,-0.3271183 1.942571,-0.340477 0.801638,-0.013359 1.68254,0.052567 2.431325,0.09092 0.748784,0.038353 1.365406,0.049137 1.801304,-0.076398 0.435898,-0.1255348 0.691157,-0.387378 0.677809,-0.6214445 -0.01335,-0.2340666 -0.295408,-0.440427 -0.656118,-0.5436527 -0.36071,-0.1032257 -0.800031,-0.1032257 -1.51489,-0.1085769 -0.714859,-0.00535 -1.705211,-0.016054 -2.779107,-0.072906 -1.073895,-0.056852 -2.231275,-0.1598573 -2.855281,0.135805 z"
       id="path171-6"
       inkscape:path-effect="#path-effect173-3"
       inkscape:original-d="m 57.93639,3.8060769 c -0.09037,0.6943581 -0.180844,1.3886097 -0.271428,2.0827543 0.01787,1.3088902 0.03559,2.6176214 0.05324,3.9262721 -0.0302,1.3711517 -0.06051,2.7421407 -0.09092,4.1130507 -0.06904,0.994455 -0.138178,1.988764 -0.207423,2.982986 0.08332,0.49519 0.166518,0.990255 0.249617,1.485223 0.862609,0.04562 1.725072,0.09113 2.587449,0.136533 1.574375,-0.03767 3.148574,-0.07545 4.722708,-0.113338 0.397777,-0.326287 0.795438,-0.652667 1.192993,-0.979162 -0.150123,-0.20017 -0.300347,-0.400438 -0.450677,-0.600817 -0.699025,-0.12478 -1.398131,-0.24966 -2.097353,-0.374649 -1.121951,0.08357 -2.243963,0.167033 -3.36611,0.25039 -0.38636,0.02302 -0.772816,0.04593 -1.159378,0.06874 -0.04928,-1.051517 -0.09867,-2.103098 -0.148165,-3.154807 0.04234,-0.498704 0.08455,-0.997492 0.126666,-1.496398 1.017273,-0.03316 2.0344,-0.06642 3.051436,-0.0998 0.687891,0.08795 1.375636,0.175791 2.063289,0.263526 0.581874,-0.04169 1.163616,-0.0835 1.745263,-0.12541 0.0992,-0.352741 0.198302,-0.705575 0.297292,-1.058523 -0.448638,-0.152975 -0.897362,-0.306051 -1.346207,-0.459237 -1.027487,-0.02281 -2.055039,-0.04572 -3.082722,-0.06874 -0.822862,0.04488 -1.645805,0.08965 -2.468868,0.134313 -0.187575,-0.528991 -0.375256,-1.0580673 -0.563047,-1.5872609 1.06e-4,-0.8010859 1.06e-4,-1.6022452 0,-2.403528 0.114932,-0.3760622 0.229743,-0.752215 0.344459,-1.1284829 0.722437,-0.092561 1.444739,-0.1852245 2.16695,-0.2779971 0.881043,0.066035 1.761945,0.1319606 2.642761,0.197781 0.616758,0.010891 1.23338,0.021675 1.849911,0.032354 0.255376,-0.2617464 0.510635,-0.523589 0.765789,-0.7855435 -0.281974,-0.2062631 -0.564034,-0.4126246 -0.846204,-0.6190969 -0.439235,1.067e-4 -0.878556,1.067e-4 -1.317988,0 -0.990287,-0.010597 -1.980639,-0.021301 -2.971117,-0.03211 C 60.251285,4.0121992 59.093905,3.9091926 57.93639,3.8060769 Z" />
    <path
       style="fill:#2a7fff;stroke-width:0.106674"
       d="m 26.860712,10.874807 c -0.04782,0.443324 -0.143442,1.329875 -0.203094,2.356126 -0.05965,1.02625 -0.08334,2.192141 0.0026,3.11061 0.08595,0.918468 0.281478,1.589442 0.886152,1.949123 0.604675,0.35968 1.618373,0.408173 2.470134,0.346707 0.851761,-0.06147 1.541571,-0.232859 1.970916,-0.655908 0.429344,-0.42305 0.598295,-1.097818 0.663898,-1.918069 0.0656,-0.820251 0.02784,-1.785966 0.08703,-1.97443 0.05919,-0.188463 0.215317,0.400305 0.339276,1.149499 0.12396,0.749193 0.215771,1.658774 0.296447,2.268383 0.08067,0.609609 0.150193,0.919209 0.362296,1.003938 0.212103,0.08473 0.566745,-0.05526 0.744875,-0.470687 0.178129,-0.415424 0.179796,-1.106376 0.07154,-1.899398 -0.108256,-0.793021 -0.326455,-1.688081 -0.489213,-2.482094 -0.162758,-0.794013 -0.270054,-1.486931 -0.448117,-2.106358 -0.178064,-0.619428 -0.426923,-1.165341 -0.797075,-1.426913 -0.370153,-0.261571 -0.861618,-0.2386584 -1.124952,0.01614 -0.263333,0.254796 -0.298414,0.741353 -0.315952,1.428794 -0.01754,0.687441 -0.01754,1.575713 0.0069,2.438905 0.02441,0.863192 0.07322,1.701249 -0.104858,2.281094 -0.178075,0.579845 -0.583023,0.901571 -0.971298,1.052921 -0.388276,0.15135 -0.759955,0.132301 -1.155562,0.08233 -0.395608,-0.04997 -0.815131,-0.130889 -1.06575,-0.689884 -0.250619,-0.558995 -0.332207,-1.596117 -0.327626,-2.57085 0.0046,-0.974732 0.09535,-1.886996 0.127898,-2.615163 0.03255,-0.728167 0.0069,-1.272212 -0.193044,-1.5720285 C 27.494197,9.677771 27.119946,9.6222913 26.959931,9.738722 c -0.160015,0.1164307 -0.10569,0.404658 -0.07854,0.548712 0.02715,0.144055 0.02714,0.14405 -0.02068,0.587373 z"
       id="path283"
       inkscape:path-effect="#path-effect285"
       inkscape:original-d="m 26.908529,10.431484 c -0.09552,0.886659 -0.191142,1.773211 -0.286874,2.659657 -0.02358,1.166044 -0.04727,2.331935 -0.07106,3.497743 0.195647,0.671107 0.391179,1.342081 0.586608,2.012962 1.013845,0.0486 2.027543,0.09709 3.041155,0.145481 0.689946,-0.171294 1.379756,-0.342688 2.069476,-0.514192 0.169065,-0.674688 0.338014,-1.349457 0.506861,-2.024345 -0.03766,-0.965649 -0.07543,-1.931364 -0.113307,-2.897207 0.156237,0.5889 0.312358,1.177669 0.468377,1.766342 0.09192,0.909724 0.183734,1.819304 0.27544,2.728796 0.06963,0.309718 0.139148,0.619318 0.208559,0.928816 0.354765,-0.139892 0.709407,-0.279884 1.063949,-0.419987 0.0018,-0.690875 0.0034,-1.381827 0.005,-2.072901 -0.218101,-0.894988 -0.436303,-1.790047 -0.654612,-2.685232 -0.107193,-0.692837 -0.21449,-1.385754 -0.321893,-2.07879 -0.248763,-0.545828 -0.497622,-1.091741 -0.746592,-1.6377707 -0.491378,0.02302 -0.982843,0.045934 -1.474425,0.068739 -0.03497,0.4866827 -0.07006,0.9732387 -0.105246,1.4596977 1.07e-4,0.888415 1.07e-4,1.776687 0,2.664869 0.04891,0.838197 0.09772,1.676253 0.146427,2.514219 -0.404859,0.321847 -0.809807,0.643574 -1.214871,0.965201 -0.371585,-0.01894 -0.743264,-0.03799 -1.115055,-0.05715 -0.419435,-0.08081 -0.838958,-0.161725 -1.258597,-0.242748 -0.08148,-1.037058 -0.163074,-2.07418 -0.24477,-3.11143 0.09088,-0.912195 0.181644,-1.824459 0.272305,-2.736848 -0.02557,-0.543962 -0.05125,-1.088007 -0.07704,-1.6321708 -0.37416,-0.055375 -0.748411,-0.1108551 -1.122777,-0.1664425 0.05443,0.2883448 0.108758,0.5765713 0.162976,0.8646963 z" />
    <path
       style="fill:#2a7fff;stroke-width:0.106674"
       d="m 39.589425,12.962274 c 0.134935,0.05323 0.404675,0.159643 0.630165,0.0876 0.22549,-0.07205 0.406862,-0.322511 0.46349,-0.691608 0.05663,-0.369097 -0.01152,-0.856901 -0.170583,-1.278543 C 40.353436,10.658078 40.103406,10.302619 39.725943,9.9736064 39.34848,9.644594 38.843567,9.3420913 38.174611,9.3096903 37.505656,9.2772893 36.672752,9.515082 36.071187,9.9530388 35.469623,10.390996 35.099519,11.02903 34.992505,11.691155 c -0.107014,0.662125 0.04901,1.348207 0.374641,1.903845 0.325628,0.555639 0.820744,0.980831 1.409901,1.363329 0.589157,0.382499 1.272306,0.72232 1.797781,1.003148 0.525476,0.280827 0.893253,0.502634 0.884307,0.720989 -0.0089,0.218354 -0.394519,0.43334 -0.816957,0.463425 -0.422439,0.03008 -0.881807,-0.12479 -1.263911,-0.298776 -0.382104,-0.173986 -0.686916,-0.367107 -0.979316,-0.477601 -0.292399,-0.110495 -0.572357,-0.138291 -0.713447,0.0499 -0.141091,0.188188 -0.143191,0.592247 0.121881,0.951235 0.265072,0.358987 0.797169,0.672914 1.411134,0.920316 0.613966,0.247403 1.309758,0.428308 1.943303,0.416077 0.633544,-0.01223 1.204865,-0.217544 1.586976,-0.518395 0.382111,-0.300852 0.575074,-0.697288 0.599067,-1.146106 0.02399,-0.448819 -0.121041,-0.950073 -0.537134,-1.383917 -0.416092,-0.433845 -1.103307,-0.800197 -1.75878,-1.137129 -0.655474,-0.336931 -1.27917,-0.644419 -1.761183,-1.01656 -0.482012,-0.372141 -0.82228,-0.808967 -0.942567,-1.218857 -0.120286,-0.40989 -0.02048,-0.792776 0.321302,-1.087103 0.341781,-0.294328 0.925426,-0.499983 1.372045,-0.526908 0.446619,-0.02692 0.756121,0.124799 1.011333,0.365454 0.255211,0.240655 0.456172,0.570162 0.514024,0.896892 0.05785,0.32673 -0.02731,0.650715 -0.06988,0.812673 -0.04257,0.161958 -0.04253,0.161959 0.0924,0.215191 z"
       id="path287"
       inkscape:path-effect="#path-effect289"
       inkscape:original-d="m 39.45449,12.909042 c 0.269848,0.106519 0.539588,0.212932 0.809224,0.319237 0.181485,-0.250368 0.362857,-0.500833 0.54413,-0.751409 -0.06805,-0.487716 -0.136196,-0.97552 -0.204453,-1.46344 -0.249933,-0.355367 -0.499964,-0.710826 -0.750105,-1.066398 -0.504824,-0.3024073 -1.009738,-0.6049092 -1.514767,-0.9075238 -0.832827,0.237908 -1.665731,0.4757007 -2.498756,0.7133908 -0.370015,0.638169 -0.740118,1.276204 -1.110336,1.914146 0.156143,0.686217 0.31217,1.372299 0.468096,2.058288 0.495243,0.425315 0.99036,0.850506 1.485378,1.275598 0.683281,0.339941 1.36643,0.679762 2.049486,1.019482 0.367898,0.221923 0.735675,0.443729 1.103353,0.665434 -0.38548,0.215101 -0.771053,0.430086 -1.156739,0.644968 -0.459284,-0.154774 -0.918652,-0.30965 -1.378138,-0.464636 -0.304718,-0.193022 -0.60953,-0.386143 -0.914455,-0.579374 -0.279866,-0.02769 -0.559823,-0.05549 -0.839894,-0.08339 -0.0021,0.404184 -0.0041,0.808244 -0.0063,1.212205 0.532223,0.314047 1.06432,0.627973 1.59632,0.941798 0.695932,0.181021 1.391724,0.361926 2.08743,0.54273 0.571448,-0.205213 1.14277,-0.410523 1.713994,-0.615946 0.19308,-0.396347 0.386043,-0.792783 0.578903,-1.189335 -0.144933,-0.501168 -0.289968,-1.002422 -0.43511,-1.503793 -0.687133,-0.366259 -1.374348,-0.732611 -2.06168,-1.099076 -0.623615,-0.307394 -1.247312,-0.614881 -1.871126,-0.922482 -0.340175,-0.436736 -0.680443,-0.873562 -1.020823,-1.310503 0.09992,-0.382795 0.199723,-0.765682 0.299429,-1.148682 0.583778,-0.205558 1.167423,-0.411215 1.750978,-0.616982 0.309617,0.151834 0.619118,0.303558 0.928518,0.455177 0.201076,0.329628 0.402036,0.659136 0.602895,0.988544 -0.08506,0.324103 -0.170224,0.648088 -0.255493,0.971971 z" />
    <path
       style="fill:#2a7fff;stroke-width:0.106674"
       d="m 43.663897,13.682509 c -0.154615,0.03882 -0.463917,0.11647 -0.558743,0.290098 -0.09483,0.173628 0.02484,0.443074 0.346296,0.589194 0.321456,0.14612 0.844627,0.169032 1.343578,0.152955 0.498951,-0.01608 0.973664,-0.07113 1.37517,-0.176461 0.401505,-0.105334 0.729821,-0.26093 0.94588,-0.569977 0.216059,-0.309046 0.319912,-0.771622 0.287412,-1.159611 -0.0325,-0.38799 -0.201432,-0.70142 -0.380768,-1.05329 -0.179336,-0.35187 -0.369058,-0.742154 -0.677042,-1.076052 -0.307985,-0.333899 -0.734272,-0.611343 -1.123367,-0.7615614 -0.389096,-0.1502188 -0.740962,-0.1731313 -1.146162,-0.1651109 -0.405199,0.00802 -0.863689,0.046988 -1.269912,0.2472287 -0.406223,0.2002406 -0.760056,0.5617286 -1.022795,1.0244976 -0.262739,0.46277 -0.434353,1.026725 -0.510916,1.551998 -0.07656,0.525273 -0.0581,1.01179 -0.004,1.562931 0.05414,0.551141 0.143947,1.166864 0.275367,1.72485 0.131419,0.557987 0.304419,1.058199 0.636513,1.451573 0.332095,0.393374 0.823179,0.679944 1.321707,0.81187 0.498529,0.131925 1.004494,0.109279 1.62945,0.01875 0.624956,-0.09052 1.368885,-0.248909 1.830467,-0.543419 0.461583,-0.29451 0.640899,-0.725192 0.635068,-1.081062 -0.0058,-0.355869 -0.196911,-0.636973 -0.356901,-0.632234 -0.159991,0.0047 -0.288778,0.295391 -0.556072,0.524935 -0.267293,0.229545 -0.673157,0.398045 -1.139157,0.493761 -0.466,0.09572 -0.992154,0.118629 -1.436149,-0.0074 -0.443995,-0.126057 -0.805817,-0.40117 -1.108872,-0.77976 -0.303055,-0.37859 -0.547272,-0.860671 -0.676438,-1.425684 -0.129167,-0.565013 -0.143213,-1.212904 -0.02057,-1.82012 0.122638,-0.607216 0.381975,-1.17366 0.790747,-1.525918 0.408772,-0.352258 0.966855,-0.490247 1.516096,-0.420858 0.54924,0.06939 1.089551,0.346067 1.422438,0.693287 0.332888,0.34722 0.458425,0.7649 0.485623,1.110012 0.0272,0.345113 -0.04389,0.617695 -0.274654,0.763492 -0.230766,0.145798 -0.62132,0.164884 -1.052056,0.168483 -0.430736,0.0036 -0.901638,-0.0083 -1.137147,-0.01425 -0.235509,-0.0059 -0.235513,-0.0059 -0.390128,0.03287 z"
       id="path291"
       inkscape:path-effect="#path-effect293"
       inkscape:original-d="m 43.818512,13.643692 c -0.309198,0.07776 -0.618501,0.155412 -0.927911,0.232959 0.119777,0.269562 0.239442,0.539008 0.359003,0.808351 0.523298,0.02302 1.046469,0.04593 1.569545,0.06874 0.474843,-0.05495 0.949557,-0.109996 1.424172,-0.165154 0.328443,-0.155498 0.656759,-0.311095 0.984977,-0.466802 0.103964,-0.462486 0.207821,-0.925061 0.311564,-1.387751 -0.168834,-0.313338 -0.337764,-0.62677 -0.506809,-0.940314 -0.189624,-0.390195 -0.379344,-0.78048 -0.569176,-1.170879 -0.426199,-0.27735 -0.852486,-0.554794 -1.278891,-0.832351 -0.351775,-0.022808 -0.703642,-0.045717 -1.055621,-0.068739 -0.458403,0.039077 -0.916893,0.078044 -1.375501,0.1169057 -0.353741,0.3616093 -0.707572,0.7230983 -1.061519,1.0844863 -0.171512,0.564084 -0.343126,1.128039 -0.514849,1.691897 0.01858,0.486645 0.03703,0.973162 0.05539,1.459583 0.08991,0.615853 0.179719,1.231575 0.269419,1.847202 0.173111,0.500338 0.346111,1.00055 0.519008,1.500664 0.491211,0.286689 0.982295,0.573259 1.473285,0.859728 0.506092,-0.02254 1.012057,-0.04518 1.517931,-0.06794 0.744059,-0.158284 1.487988,-0.316669 2.231825,-0.475162 0.179431,-0.430595 0.358747,-0.861277 0.53796,-1.292076 -0.190983,-0.281009 -0.38206,-0.562114 -0.573251,-0.843332 -0.128682,0.29077 -0.257472,0.581421 -0.386369,0.871971 -0.405765,0.168612 -0.81163,0.33711 -1.217603,0.505505 -0.526075,0.02302 -1.052229,0.04593 -1.578507,0.06874 -0.361728,-0.275017 -0.723551,-0.550129 -1.085486,-0.825352 -0.244121,-0.481994 -0.488336,-0.964076 -0.732668,-1.446273 -0.01393,-0.647809 -0.02798,-1.2957 -0.04214,-1.94371 0.259455,-0.566361 0.518792,-1.132805 0.778027,-1.699367 0.558211,-0.137889 1.116294,-0.275878 1.674283,-0.413976 0.54044,0.276794 1.080751,0.553471 1.620966,0.830047 0.125649,0.417803 0.251187,0.835482 0.37662,1.253063 -0.07098,0.272698 -0.142064,0.54528 -0.213258,0.81776 -0.390461,0.01919 -0.781015,0.03828 -1.171683,0.05726 -0.470812,-0.01179 -0.941714,-0.02369 -1.412729,-0.03569 z" />
    <path
       style="fill:#000000;stroke-width:0.106674"
       d="m 48.262668,17.345985 c 0,-0.440994 0,-1.323088 0.01131,-2.297749 0.01131,-0.974661 0.03392,-2.041842 -0.0205,-3.108208 -0.05443,-1.066366 -0.185905,-2.1318677 -0.281569,-3.1428405 -0.09566,-1.0109729 -0.1555,-1.9673524 -0.180229,-2.7369561 -0.02473,-0.7696038 -0.01434,-1.3523812 0.194514,-1.6478529 0.208857,-0.2954717 0.616057,-0.3035188 1.034131,-0.025895 0.418075,0.2776241 0.847009,0.840777 1.268613,1.4812512 0.421604,0.6404743 0.835871,1.3582237 1.192695,2.0009703 0.356824,0.6427465 0.656189,1.2104507 0.950732,1.3466737 0.294542,0.136223 0.584311,-0.1589067 0.811128,-0.5479377 0.226817,-0.389031 0.390689,-0.8719987 0.565426,-1.3473226 0.174737,-0.4753239 0.360329,-0.9429683 0.561993,-1.3888416 0.201663,-0.4458733 0.419383,-0.8699312 0.696221,-1.1356764 0.276838,-0.2657451 0.612694,-0.3731012 0.901318,0.021226 0.288623,0.394327 0.53003,1.2901578 0.639394,2.1566463 0.109363,0.8664886 0.08672,1.7036081 0.0754,2.6481966 -0.01132,0.9445886 -0.01132,1.9965836 0.06888,2.9980816 0.08021,1.001497 0.240595,1.952425 0.337811,2.80796 0.09722,0.855536 0.131273,1.615644 -0.04771,2.032307 -0.178987,0.416663 -0.57107,0.48999 -0.877185,0.423503 -0.306115,-0.06649 -0.526263,-0.272908 -0.625594,-0.663086 -0.09933,-0.390178 -0.07772,-0.964083 -0.08015,-1.705261 -0.0024,-0.741178 -0.0289,-1.649589 -0.06613,-2.54865 -0.03723,-0.899061 -0.08522,-1.788723 -0.142927,-2.607158 C 55.192523,9.5409309 55.125096,8.7937653 54.923046,8.7405454 54.720996,8.6873255 54.384369,9.3281159 53.990711,9.8207341 53.597054,10.313352 53.14636,10.657819 52.803062,10.828239 52.459763,10.99866 52.223789,10.99501 51.796027,10.558441 51.368265,10.121872 50.748764,9.2522991 50.259599,8.5428281 49.770435,7.8333571 49.411639,7.284025 49.246541,7.5145969 c -0.165098,0.2305718 -0.136415,1.2410309 -0.02274,2.2217588 0.113677,0.9807283 0.312318,1.9316523 0.4085,2.8743093 0.09618,0.942658 0.08993,1.877013 0.02574,2.745828 -0.0642,0.868815 -0.186312,1.672057 -0.428476,2.066187 -0.242165,0.394131 -0.604486,0.379218 -0.785706,0.371759 -0.181219,-0.0075 -0.181189,-0.0075 -0.181189,-0.448454 z"
       id="path295"
       inkscape:path-effect="#path-effect297"
       inkscape:original-d="m 48.262668,17.78698 c 1.05e-4,-0.881989 1.05e-4,-1.764083 0,-2.646285 0.02273,-1.067118 0.04534,-2.134299 0.06785,-3.201608 C 48.199141,10.87365 48.067659,9.8081491 47.936071,8.7425203 47.876341,7.7862083 47.816505,6.8298288 47.75656,5.8733227 47.76704,5.2906293 47.77743,4.707852 47.78772,4.1249564 c 0.407328,-0.00794 0.814528,-0.015988 1.221634,-0.024142 0.429058,0.5632804 0.857994,1.1264318 1.286824,1.6894878 0.414395,0.717886 0.828661,1.4356365 1.24283,2.1532945 0.299484,0.5678341 0.598849,1.1355383 0.898113,1.7031475 0.289889,-0.2950363 0.579656,-0.5901677 0.869328,-0.8854113 0.163982,-0.48288 0.327854,-0.9658476 0.491624,-1.448931 0.185703,-0.4675575 0.371294,-0.9352026 0.55679,-1.402964 0.217834,-0.4239691 0.435551,-0.8480283 0.653173,-1.2722025 0.335971,-0.1072531 0.671827,-0.2146087 1.007583,-0.3220731 0.241522,0.8959718 0.482934,1.7918012 0.724234,2.6875419 -0.02255,0.8372599 -0.0452,1.6743793 -0.06794,2.5114091 1.01e-4,1.0521447 1.01e-4,2.1041397 0,3.1560487 0.160498,0.951072 0.32089,1.901999 0.481172,2.852839 0.03413,0.760243 0.06822,1.520349 0.102171,2.280364 -0.392003,0.07344 -0.784086,0.146767 -1.176296,0.21999 -0.220043,-0.206322 -0.440192,-0.412741 -0.660456,-0.619273 0.0217,-0.573821 0.04334,-1.147725 0.06482,-1.721748 -0.02638,-0.908341 -0.05284,-1.816752 -0.07941,-2.725288 -0.04787,-0.889589 -0.09588,-1.77925 -0.143972,-2.669034 -0.06733,-0.7470891 -0.13475,-1.4942553 -0.202284,-2.2415428 -0.336535,0.640923 -0.673162,1.2817137 -1.009903,1.9224107 -0.450611,0.3445901 -0.901303,0.6890591 -1.352117,1.0334281 -0.235877,-0.0035 -0.471851,-0.0072 -0.707934,-0.01095 C 51.368285,10.121857 50.748785,9.2522841 50.129164,8.3825873 49.770461,7.83334 49.411665,7.2840082 49.052756,6.7345588 c 0.02879,1.010607 0.05747,2.0210662 0.08605,3.0314399 0.198754,0.9510683 0.397395,1.9019923 0.595934,2.8528283 -0.0061,0.934497 -0.01239,1.868852 -0.01876,2.803117 -0.122014,0.803382 -0.244133,1.606624 -0.366359,2.409776 -0.362227,-0.0148 -0.724549,-0.02971 -1.086983,-0.04474 z" />
    <path
       style="fill:#2a7fff;stroke-width:0.106674"
       d="m 67.920223,21.153693 c -0.07175,-0.33163 -0.215281,-0.995014 -0.309062,-1.566606 -0.09378,-0.571591 -0.137799,-1.051367 -0.205494,-1.537112 -0.06769,-0.485745 -0.159074,-0.977437 -0.282612,-1.488129 -0.123537,-0.510691 -0.279238,-1.040357 -0.346027,-1.494922 -0.06679,-0.454565 -0.04462,-0.833973 0.176804,-1.10469 0.221424,-0.270717 0.642014,-0.432603 1.128312,-0.554164 0.486297,-0.12156 1.038239,-0.202798 1.509168,-0.214845 0.470928,-0.01205 0.860792,0.04507 1.233039,0.213082 0.372247,0.168016 0.726854,0.446843 1.008007,0.830509 0.281153,0.383665 0.488896,0.872104 0.592742,1.297686 0.103846,0.425583 0.103846,0.788309 0.004,1.155842 -0.09981,0.367534 -0.299394,0.739919 -0.77052,0.983107 -0.471126,0.243188 -1.213864,0.357218 -1.767673,0.397861 -0.553809,0.04064 -0.918675,0.0079 -1.017681,-0.125474 -0.09901,-0.133346 0.06798,-0.367268 0.42473,-0.516986 0.356752,-0.149717 0.903132,-0.215191 1.300838,-0.300128 0.397706,-0.08494 0.64675,-0.189321 0.748469,-0.457327 0.101719,-0.268007 0.05615,-0.699756 -0.03729,-1.085457 -0.09344,-0.385702 -0.234783,-0.725345 -0.475853,-1.010468 -0.241069,-0.285123 -0.581914,-0.515662 -1.072905,-0.620244 -0.49099,-0.104582 -1.13206,-0.08312 -1.55355,0.06864 -0.421489,0.151756 -0.62325,0.433765 -0.633255,0.870325 -0.01001,0.436559 0.171689,1.027536 0.325998,1.606894 0.154309,0.579358 0.281238,1.147071 0.3765,1.651696 0.09526,0.504626 0.158863,0.946141 0.210554,1.376117 0.05169,0.429977 0.09148,0.848383 0.0069,1.172497 -0.08458,0.324113 -0.293503,0.554022 -0.397964,0.668976 -0.104461,0.114954 -0.104459,0.114951 -0.17621,-0.21668 z"
       id="path325"
       inkscape:path-effect="#path-effect327"
       inkscape:original-d="m 67.991974,21.485324 c -0.143424,-0.663278 -0.286948,-1.326663 -0.430588,-1.990155 -0.04389,-0.479684 -0.08792,-0.959459 -0.132052,-1.439349 -0.09128,-0.491605 -0.182657,-0.983298 -0.274146,-1.475107 -0.1556,-0.529579 -0.311301,-1.059245 -0.467113,-1.589028 0.0223,-0.379318 0.04445,-0.758727 0.06651,-1.138251 0.420721,-0.161786 0.841311,-0.323674 1.261806,-0.485671 0.552068,-0.08113 1.10401,-0.162372 1.655857,-0.243717 0.389979,0.05722 0.779843,0.114335 1.169606,0.171342 0.354733,0.278948 0.70934,0.557776 1.063851,0.836505 0.207861,0.488565 0.415602,0.977004 0.623241,1.465346 1.11e-4,0.362846 1.11e-4,0.725572 0,1.088199 -0.19949,0.372507 -0.399075,0.744893 -0.598772,1.11718 -0.742663,0.114142 -1.485402,0.228171 -2.228267,0.342097 -0.36478,-0.03266 -0.729646,-0.06543 -1.094627,-0.09831 0.167102,-0.233825 0.334084,-0.467748 0.500964,-0.701782 0.546516,-0.06537 1.092896,-0.130843 1.639186,-0.196426 0.249163,-0.10428 0.498206,-0.208664 0.747148,-0.313157 -0.04546,-0.43166 -0.09103,-0.863409 -0.136708,-1.295274 -0.141244,-0.33955 -0.282588,-0.679193 -0.424043,-1.018951 -0.340754,-0.230441 -0.681598,-0.460982 -1.022559,-0.691633 -0.641,0.02158 -1.282071,0.04303 -1.923268,0.0644 -0.201665,0.282128 -0.403425,0.564137 -0.605296,0.846045 0.181806,0.591105 0.363507,1.18208 0.545091,1.772959 0.127044,0.567841 0.253971,1.135554 0.380793,1.70317 0.06371,0.44164 0.12731,0.883155 0.190807,1.324573 0.03992,0.418536 0.07967,0.836946 0.119357,1.255259 -0.208823,0.230024 -0.417746,0.459933 -0.62678,0.689739 z" />
    <path
       style="fill:#2a7fff;stroke-width:0.106674"
       d="m 73.385975,10.605374 c -0.109355,0.06153 -0.328094,0.184599 -0.397064,0.49498 -0.06897,0.31038 0.01185,0.807905 0.05401,1.414238 0.04216,0.606333 0.04568,1.32145 0.05797,2.144387 0.01229,0.822936 0.03334,1.753638 0.220378,2.358726 0.18704,0.605088 0.539944,0.884551 0.922569,1.005899 0.382625,0.121348 0.79497,0.08468 0.994913,-0.06219 0.199943,-0.146869 0.18756,-0.404044 0.02635,-0.567589 -0.16121,-0.163546 -0.471342,-0.233366 -0.761361,-0.316022 -0.290019,-0.08266 -0.559906,-0.178159 -0.694917,-0.610187 -0.13501,-0.432028 -0.13501,-1.200608 -0.164751,-2.243994 -0.02974,-1.043385 -0.08923,-2.361513 -0.118971,-3.020646 -0.02975,-0.659132 -0.02977,-0.659132 -0.139125,-0.597605 z"
       id="path549"
       inkscape:path-effect="#path-effect551"
       inkscape:original-d="m 73.495329,10.543847 c -0.218638,0.12318 -0.437377,0.246253 -0.656227,0.36922 0.08093,0.497652 0.161746,0.995177 0.242453,1.492606 0.0035,0.715252 0.0071,1.430369 0.01057,2.145394 0.02114,0.930846 0.04218,1.861548 0.06315,2.792161 0.353022,0.279579 0.705927,0.559041 1.058727,0.838401 0.41247,-0.03656 0.824815,-0.07323 1.237069,-0.110003 -0.01233,-0.25708 -0.02467,-0.514257 -0.03715,-0.771547 -0.310048,-0.06972 -0.620181,-0.139539 -0.930435,-0.209468 -0.269787,-0.0954 -0.539675,-0.190903 -0.809674,-0.286515 1.11e-4,-0.768505 1.11e-4,-1.537085 0,-2.305788 -0.05938,-1.318073 -0.118863,-2.636201 -0.178458,-3.954461 z" />
    <path
       style="fill:#2a7fff;stroke-width:0.106674"
       d="m 76.821284,13.63682 c 0.392289,-0.02323 1.176763,-0.06968 1.824201,-0.0631 0.647438,0.0066 1.157796,0.0662 1.493655,0.239762 0.335858,0.173563 0.497249,0.460956 0.290065,0.755739 -0.207184,0.294782 -0.782891,0.597089 -1.298215,0.884535 -0.515323,0.287445 -0.970232,0.560016 -1.319185,0.853239 -0.348954,0.293222 -0.591897,0.607049 -0.277344,0.749625 0.314553,0.142577 1.18646,0.113914 1.831527,0.120575 0.645067,0.0067 1.063251,0.04863 1.259848,0.207318 0.196596,0.158687 0.17172,0.433994 -0.157359,0.576648 -0.32908,0.142653 -0.962454,0.152743 -1.722226,0.107496 -0.759772,-0.04525 -1.645899,-0.145843 -2.137351,-0.298098 -0.491451,-0.152255 -0.588141,-0.356272 -0.44156,-0.653277 0.146581,-0.297006 0.536481,-0.686848 1.147546,-1.141106 0.611064,-0.454257 1.443233,-0.972891 1.662397,-1.305085 0.219164,-0.332194 -0.174772,-0.478001 -0.784474,-0.52638 -0.609702,-0.04838 -1.4351,7.23e-4 -1.765058,-0.0638 -0.329958,-0.06453 -0.164362,-0.242688 -0.08156,-0.331773 0.0828,-0.08909 0.0828,-0.08909 0.475094,-0.112318 z"
       id="path553"
       inkscape:path-effect="#path-effect555"
       inkscape:original-d="m 76.428995,13.66005 c 0.784585,-0.04635 1.569059,-0.0928 2.353433,-0.139364 0.510484,0.05972 1.020842,0.119329 1.531104,0.178834 0.1615,0.28751 0.322894,0.574901 0.484177,0.862191 -0.575621,0.302425 -1.151328,0.604731 -1.727156,0.906937 -0.45481,0.272685 -0.909721,0.545252 -1.364737,0.817719 -0.242846,0.313946 -0.485788,0.627774 -0.728846,0.941501 0.872048,-0.02856 1.743955,-0.05722 2.615766,-0.08599 0.418309,0.04208 0.836493,0.08405 1.254582,0.12591 -0.02477,0.275426 -0.04963,0.550735 -0.07463,0.825942 -0.633289,0.0102 -1.266663,0.02029 -1.900163,0.03027 -0.886057,-0.100494 -1.772184,-0.201089 -2.658442,-0.301794 -0.09659,-0.203919 -0.193278,-0.407937 -0.290078,-0.612067 0.390025,-0.38975 0.779924,-0.779593 1.169722,-1.169549 0.8323,-0.518544 1.66447,-1.037176 2.496544,-1.555924 -0.393845,-0.145707 -0.787782,-0.291513 -1.181833,-0.437429 -0.825324,0.04921 -1.650723,0.09831 -2.476243,0.147311 0.165708,-0.178062 0.331305,-0.356222 0.496797,-0.534495 z" />
  </g>
</svg>
